<?xml version="1.0" standalone="no"?>
<!DOCTYPE svg PUBLIC "-//W3C//DTD SVG 20010904//EN"
 "http://www.w3.org/TR/2001/REC-SVG-20010904/DTD/svg10.dtd">
<svg version="1.0" xmlns="http://www.w3.org/2000/svg"
 width="1200.000000pt" height="1200.000000pt" viewBox="0 0 1200.000000 1200.000000"
 preserveAspectRatio="xMidYMid meet">

<g transform="translate(0.000000,1200.000000) scale(0.100000,-0.100000)"
fill="#000000" stroke="none">
<path d="M3200 8946 c0 -11 40 -86 45 -86 3 0 -4 19 -16 43 -23 45 -29 54 -29
43z"/>
<path d="M3265 8820 c9 -16 18 -30 21 -30 2 0 -2 14 -11 30 -9 17 -18 30 -21
30 -2 0 2 -13 11 -30z"/>
<path d="M4500 8828 c-57 -38 -73 -101 -72 -285 0 -96 4 -158 12 -170 10 -16
10 -15 5 5 -11 40 -7 307 5 353 16 59 68 109 112 109 44 0 120 -37 186 -89 30
-24 56 -41 58 -38 6 6 -108 93 -149 113 -15 8 -49 17 -75 20 -39 5 -53 2 -82
-18z"/>
<path d="M3313 8735 c9 -16 23 -39 32 -50 9 -11 7 -2 -6 20 -27 49 -47 72 -26
30z"/>
<path d="M3369 8645 c5 -11 17 -29 26 -40 l16 -20 -10 20 c-5 11 -17 29 -26
40 l-16 20 10 -20z"/>
<path d="M4870 8642 c0 -5 7 -15 15 -22 8 -7 15 -8 15 -2 0 5 -7 15 -15 22 -8
7 -15 8 -15 2z"/>
<path d="M4926 8575 c56 -92 104 -181 104 -192 0 -7 5 -13 10 -13 14 0 -72
166 -106 205 l-26 30 18 -30z"/>
<path d="M3470 8490 c12 -16 24 -30 26 -30 3 0 -4 14 -16 30 -12 17 -24 30
-26 30 -3 0 4 -13 16 -30z"/>
<path d="M3531 8405 c18 -25 40 -51 48 -58 8 -7 -5 14 -28 46 -51 68 -67 77
-20 12z"/>
<path d="M5054 8321 c6 -22 15 -43 20 -48 8 -8 2 18 -15 65 -14 37 -18 25 -5
-17z"/>
<path d="M4443 8329 c3 -9 9 -37 12 -63 4 -25 12 -49 17 -52 6 -4 8 1 4 12 -3
11 -10 38 -15 62 -5 24 -13 47 -17 50 -4 4 -5 0 -1 -9z"/>
<path d="M3605 8310 c10 -11 20 -20 23 -20 3 0 -3 9 -13 20 -10 11 -20 20 -23
20 -3 0 3 -9 13 -20z"/>
<path d="M3660 8241 c5 -11 15 -23 21 -27 6 -3 3 5 -6 20 -20 30 -30 35 -15 7z"/>
<path d="M5082 8219 c6 -24 11 -98 11 -164 0 -102 -4 -132 -27 -201 -29 -90
-84 -181 -142 -235 -41 -38 -101 -76 -107 -68 -20 22 -114 162 -155 230 -57
94 -132 259 -159 347 -9 32 -20 61 -25 67 -10 12 17 -80 48 -162 37 -99 121
-256 201 -376 53 -79 71 -113 63 -121 -7 -7 -54 -11 -118 -11 -100 0 -113 2
-194 36 -48 20 -85 32 -82 28 2 -4 41 -22 87 -40 94 -37 208 -49 283 -30 25 7
48 10 50 9 2 -2 -33 -41 -77 -86 -147 -152 -285 -357 -363 -539 -114 -266
-156 -511 -156 -905 0 -143 2 -168 15 -168 12 0 15 14 15 69 0 68 1 70 28 74
l27 4 -27 2 -28 1 0 118 c0 415 100 764 309 1073 70 104 200 257 255 300 l29
23 65 -75 c76 -86 299 -306 325 -321 10 -5 -53 62 -141 149 -87 87 -177 181
-200 210 l-43 52 68 54 c197 158 442 281 678 340 167 42 249 52 450 51 154 0
213 -4 310 -22 299 -56 584 -189 822 -384 95 -78 238 -231 318 -343 115 -159
229 -409 279 -610 22 -88 46 -263 46 -334 0 -48 3 -61 15 -61 32 0 10 239 -42
435 -132 505 -476 930 -938 1159 -267 133 -531 196 -815 196 -342 0 -722 -113
-992 -295 -63 -42 -76 -44 -50 -7 57 81 95 191 108 313 7 67 -11 237 -26 253
-5 4 -4 -11 2 -35z"/>
<path d="M3737 8155 c23 -27 79 -86 124 -130 70 -67 66 -61 -26 35 -141 149
-146 155 -98 95z"/>
<path d="M1940 7974 c-500 -67 -950 -337 -1242 -745 -134 -187 -251 -454 -298
-683 -40 -194 -41 -277 -38 -2046 3 -1624 4 -1707 21 -1733 10 -16 32 -37 50
-47 31 -20 65 -20 1747 -20 1660 0 1716 1 1746 19 59 36 61 53 54 386 l-6 300
-2 -262 -2 -263 -455 0 c-250 0 -455 3 -455 8 0 4 18 17 40 30 22 12 56 37 76
54 36 31 36 33 32 99 -4 73 -39 144 -90 182 -40 30 -68 24 -182 -34 -58 -29
-108 -50 -112 -47 -3 4 -24 79 -45 168 -21 88 -43 169 -49 180 -17 31 -50 24
-129 -26 -78 -50 -141 -65 -181 -44 -12 6 -26 8 -31 3 -4 -4 11 -70 36 -146
24 -76 40 -137 35 -135 -5 2 -68 57 -139 123 l-131 120 2 110 3 110 78 5 77 5
0 -33 c0 -18 9 -52 21 -77 19 -39 25 -45 53 -45 72 1 177 74 217 153 19 36 19
37 1 37 -16 0 -20 10 -25 58 -3 31 -15 85 -26 120 -16 51 -18 67 -9 82 15 23
7 33 -29 34 -25 1 -28 5 -31 43 -3 35 0 42 18 48 27 8 84 58 111 96 23 32 21
44 -28 164 -27 66 -53 99 -97 122 -41 22 -167 42 -258 43 l-78 0 0 510 0 511
28 26 27 25 -27 -16 -28 -16 0 90 c0 73 -3 90 -15 90 -12 0 -15 -18 -15 -107
l1 -108 -58 -54 c-32 -29 -44 -44 -28 -33 17 11 39 29 49 41 11 12 23 21 28
21 4 0 8 -220 8 -489 0 -531 3 -501 -54 -501 -12 0 -45 -6 -73 -13 -45 -12
-53 -12 -58 1 -3 8 -8 12 -12 8 -9 -9 -43 24 -43 43 0 27 -51 23 -82 -7 l-28
-26 0 35 c0 139 -124 257 -259 247 -90 -6 -143 -39 -282 -175 -135 -131 -201
-173 -271 -173 -34 0 -38 -3 -38 -25 0 -14 9 -43 20 -65 63 -124 221 -193 370
-161 68 15 126 44 224 114 43 32 85 57 92 57 12 0 12 -3 2 -14 -7 -8 -16 -12
-20 -9 -5 2 -8 -5 -8 -15 0 -12 21 -37 48 -60 l48 -41 12 -99 c13 -116 42
-196 88 -251 30 -35 33 -42 23 -69 -8 -23 -15 -29 -30 -25 -41 11 -16 -14 48
-47 44 -22 100 -66 165 -129 54 -51 101 -91 104 -88 3 3 0 19 -9 35 -13 27
-12 32 4 53 18 24 19 24 19 -54 l0 -78 -97 86 c-127 112 -180 138 -281 139
-92 1 -155 -19 -244 -76 -142 -92 -305 -307 -479 -634 l-53 -98 -17 94 c-32
177 -90 424 -105 447 -13 21 -22 23 -87 23 -80 -1 -193 -34 -211 -62 -14 -22
14 -354 50 -600 l7 -48 -85 0 c-72 0 -90 4 -119 23 -20 13 -39 37 -45 57 -9
26 -11 436 -7 1600 3 861 6 1565 7 1566 10 5 1276 -11 1274 -16 -4 -9 -197
-176 -395 -343 -79 -65 -143 -121 -143 -124 0 -6 111 85 363 300 l209 177 114
0 c95 0 114 3 114 15 0 12 -17 15 -91 15 -50 0 -89 4 -87 8 2 5 49 50 106 101
56 51 102 95 102 99 0 6 -15 -6 -142 -120 l-98 -88 -318 0 c-175 0 -475 -3
-665 -7 l-347 -6 0 159 c0 87 7 207 15 265 103 775 683 1386 1453 1531 153 29
453 31 606 5 797 -139 1403 -782 1486 -1577 5 -53 10 -417 10 -821 0 -399 3
-1004 8 -1345 6 -526 8 -584 13 -384 11 412 10 2428 -1 2537 -28 292 -128 577
-286 821 -377 579 -1069 897 -1754 806z m540 -3791 c0 -60 -3 -74 -12 -65 -17
17 -63 15 -79 -4 -12 -15 -11 -16 9 -10 12 4 36 5 53 1 29 -7 30 -7 27 -70 -1
-47 2 -69 14 -82 15 -17 14 -25 -14 -110 -18 -55 -40 -102 -55 -117 -29 -30
-96 -52 -175 -59 l-58 -6 0 180 c0 179 0 180 25 202 14 12 46 53 72 91 37 53
60 76 102 98 86 45 91 42 91 -49z m-369 -83 c42 -23 49 -58 49 -257 0 -175 -2
-191 -22 -230 l-22 -41 -61 57 c-34 31 -91 72 -127 91 -63 33 -65 35 -55 60
18 42 38 55 128 83 47 15 94 36 104 47 17 19 17 21 -29 63 -38 36 -46 50 -46
78 0 54 33 74 81 49z m464 -344 l23 -111 -46 -47 c-45 -47 -95 -78 -126 -78
-17 0 -36 56 -36 108 0 40 8 40 45 2 16 -16 35 -30 42 -30 22 0 14 38 -13 59
l-26 21 25 30 c14 16 33 55 42 85 9 31 21 68 27 83 13 31 9 43 43 -122z m-472
-815 c57 -38 67 -49 68 -75 l1 -31 7 28 c5 25 8 26 24 15 16 -12 16 -15 -9
-41 -16 -17 -25 -38 -24 -55 5 -65 11 -62 -115 -62 -63 0 -115 3 -115 7 0 17
85 263 90 260 3 -1 35 -22 73 -46z"/>
<path d="M2412 4028 c-14 -14 -16 -38 -3 -38 10 0 26 39 19 46 -2 2 -10 -2
-16 -8z"/>
<path d="M2376 3814 c-15 -40 3 -47 21 -9 9 20 8 25 -2 25 -7 0 -16 -7 -19
-16z"/>
<path d="M2101 4013 c13 -16 27 -32 31 -37 5 -6 8 -2 8 7 0 19 -34 57 -52 57
-6 0 -1 -12 13 -27z"/>
<path d="M9667 7974 c-332 -45 -641 -177 -902 -384 -86 -69 -252 -242 -317
-330 -189 -257 -291 -506 -338 -825 -26 -172 -30 -615 -5 -595 10 8 15 31 15
71 l0 58 88 4 87 3 -89 2 -88 2 5 218 c5 241 20 338 82 530 45 139 158 362
243 481 373 523 1007 809 1640 740 295 -32 560 -129 818 -300 135 -90 357
-308 457 -449 130 -183 252 -469 291 -681 33 -177 35 -287 37 -1797 0 -837 4
-1534 9 -1550 5 -15 9 173 9 433 1 253 4 939 7 1525 7 1124 5 1207 -38 1415
-141 690 -683 1243 -1373 1401 -192 43 -444 55 -638 28z"/>
<path d="M3973 7912 c4 -6 22 -21 39 -34 17 -12 28 -17 25 -10 -4 6 -22 21
-39 34 -17 12 -28 17 -25 10z"/>
<path d="M9892 7048 c-1 -567 1 -858 8 -858 11 0 12 1122 1 1490 -5 148 -8
-70 -9 -632z"/>
<path d="M6034 7770 c0 -58 1 -81 3 -52 2 28 2 76 0 105 -2 28 -3 5 -3 -53z"/>
<path d="M4070 7826 c0 -3 9 -10 20 -16 11 -6 20 -8 20 -6 0 3 -9 10 -20 16
-11 6 -20 8 -20 6z"/>
<path d="M4120 7787 c0 -7 186 -147 194 -147 5 0 -32 31 -81 68 -96 74 -113
85 -113 79z"/>
<path d="M2161 7704 c0 -11 3 -14 6 -6 3 7 2 16 -1 19 -3 4 -6 -2 -5 -13z"/>
<path d="M2172 7680 c-1 -3 -5 -293 -8 -645 -6 -627 -7 -640 -27 -662 -11 -13
-15 -23 -9 -23 6 0 13 4 16 9 3 5 16 7 28 3 17 -4 20 -2 15 12 -5 12 23 44
106 123 61 59 195 190 297 292 148 147 128 129 -103 -90 -159 -151 -293 -275
-298 -277 -5 -2 -10 253 -12 630 -1 348 -3 631 -5 628z"/>
<path d="M4331 7626 c2 -2 15 -9 29 -15 24 -11 24 -11 6 3 -16 13 -49 24 -35
12z"/>
<path d="M6030 7404 c0 -426 -10 -839 -20 -837 -15 4 -12 -6 6 -24 13 -14 14
-38 8 -182 -6 -160 -7 -167 -33 -196 -16 -18 -18 -23 -5 -12 11 9 24 17 27 17
4 0 7 -40 7 -90 0 -53 -4 -90 -10 -90 -5 0 -10 -7 -10 -15 0 -8 5 -15 10 -15
7 0 10 -250 10 -730 0 -401 -4 -730 -8 -730 -20 0 -82 69 -82 92 0 50 -79 100
-185 116 -111 18 -145 -8 -185 -137 -23 -72 -25 -108 -9 -162 10 -32 8 -52
-16 -141 -35 -134 -35 -134 -79 -130 -40 3 -46 -9 -21 -42 10 -13 15 -45 15
-95 0 -42 5 -94 11 -116 14 -51 69 -108 130 -135 29 -12 46 -25 44 -33 -4 -9
9 -11 51 -8 99 6 227 -30 263 -73 21 -25 42 -21 32 6 -5 15 -2 32 12 55 10 18
22 33 25 33 4 0 8 -63 10 -140 1 -77 0 -140 -4 -140 -3 0 -45 36 -92 80 -53
50 -112 93 -152 113 -57 28 -74 32 -145 31 -132 -1 -244 -60 -372 -198 -103
-110 -253 -337 -349 -527 -33 -66 -54 -81 -54 -38 0 22 -49 264 -81 401 -11
48 -27 95 -36 103 -21 21 -123 19 -207 -4 -106 -29 -102 -17 -81 -248 9 -109
25 -251 34 -316 9 -65 15 -120 12 -122 -2 -3 -40 -5 -84 -5 -88 0 -123 14
-151 60 -15 26 -16 155 -16 1490 0 1165 -3 1461 -12 1457 -10 -3 -12 -303 -10
-1468 4 -1632 -2 -1505 72 -1541 32 -16 159 -17 1748 -19 1696 -2 1714 -1
1740 18 58 43 61 57 53 288 l-8 210 -1 -167 -2 -168 -124 0 c-153 0 -163 3
-137 39 49 69 178 606 227 946 10 66 21 124 26 130 4 5 9 -157 10 -360 1 -283
3 -338 9 -235 3 74 7 624 8 1223 1 989 0 1087 -15 1087 -15 0 -15 -75 -9 -851
8 -833 7 -851 -11 -846 -10 3 -57 11 -104 17 -47 6 -143 25 -214 41 -71 16
-131 27 -133 26 -1 -2 -12 -118 -23 -258 -22 -275 -38 -427 -45 -439 -3 -4
-19 -10 -37 -14 -53 -10 -18 -27 58 -28 41 0 84 6 107 15 20 9 37 14 37 11 0
-3 -9 -23 -20 -44 -18 -36 -24 -40 -58 -40 -20 0 -43 -4 -51 -9 -24 -15 -1
-31 45 -31 38 0 45 -3 42 -17 -2 -14 -15 -19 -48 -20 -25 -2 -51 -5 -57 -8
-24 -9 -13 -24 23 -31 l35 -6 -21 -23 c-14 -15 -37 -24 -73 -28 -29 -4 -69 -9
-89 -13 -38 -7 -38 -6 -38 27 0 43 -29 106 -63 140 l-27 26 58 43 c31 23 80
53 109 66 57 25 70 39 48 48 -40 15 -190 -75 -220 -133 -14 -28 -13 -33 20
-96 19 -36 35 -76 35 -88 1 -58 9 -67 66 -67 30 0 54 -3 54 -7 1 -25 -67 -176
-82 -184 -10 -5 -66 -8 -125 -7 l-108 3 68 44 c81 52 102 85 92 148 -18 119
-105 218 -170 193 -36 -14 -36 -13 -25 15 21 56 -27 161 -91 199 -50 29 -99
17 -196 -51 -102 -71 -212 -140 -281 -178 l-51 -28 -43 38 c-24 21 -71 65
-105 97 l-63 60 0 184 c0 111 4 184 10 184 14 0 116 108 155 164 69 101 69
202 2 304 -18 26 -38 60 -46 75 -8 15 -38 51 -68 81 l-53 55 0 745 0 745 27 3
c38 4 42 28 5 28 l-29 0 -8 102 -7 103 33 27 c18 15 30 30 27 33 -3 3 -11 -1
-18 -10 -7 -8 -16 -15 -21 -15 -5 0 -9 65 -9 145 0 80 2 145 5 145 3 0 43 -20
88 -45 46 -25 88 -45 93 -45 5 0 -31 23 -81 51 -49 27 -93 53 -96 57 -4 4 -9
236 -12 516 -3 279 -8 511 -11 514 -3 3 -6 -71 -6 -164z m-216 -3024 c20 -16
20 -64 1 -150 -19 -88 -18 -124 4 -151 l20 -24 33 31 c44 41 66 48 94 29 49
-32 15 -103 -61 -128 -23 -8 -41 -21 -43 -31 -4 -21 68 -92 122 -121 44 -24
46 -49 10 -108 -15 -23 -28 -43 -29 -45 -1 -1 -22 9 -46 22 -50 28 -168 50
-217 41 -60 -11 -171 56 -198 122 -9 19 -14 69 -14 125 0 86 2 94 25 113 18
15 31 44 49 115 29 111 50 166 68 174 23 10 166 0 182 -14z m217 -1514 l1 -31
7 28 c6 26 7 27 26 13 20 -14 20 -15 -2 -38 -14 -15 -23 -37 -23 -55 0 -62 -1
-63 -127 -63 -106 0 -115 1 -108 18 4 9 22 64 41 122 19 58 36 111 39 118 3 8
27 -2 75 -34 61 -41 70 -51 71 -78z m6 52 c-3 -8 -6 -5 -6 6 -1 11 2 17 5 13
3 -3 4 -12 1 -19z"/>
<path d="M5680 4294 c-8 -9 -28 -25 -45 -36 l-30 -18 26 0 c28 0 74 41 67 60
-2 8 -9 6 -18 -6z"/>
<path d="M5603 4160 c-14 -38 2 -51 19 -15 7 16 8 29 2 35 -6 6 -14 -1 -21
-20z"/>
<path d="M5890 4055 c-21 -25 -1 -31 23 -7 17 18 18 22 5 22 -8 0 -21 -7 -28
-15z"/>
<path d="M5555 4010 c-4 -6 4 -9 17 -7 34 3 39 -47 6 -64 -32 -16 -31 -15 -18
-38 27 -52 66 1 55 77 -5 36 -10 42 -30 42 -13 0 -27 -4 -30 -10z"/>
<path d="M5260 7076 c0 -16 416 -324 425 -315 2 3 -51 44 -118 91 -67 48 -162
119 -210 157 -83 67 -97 77 -97 67z"/>
<path d="M6779 6843 c-13 -16 -12 -17 4 -4 9 7 17 15 17 17 0 8 -8 3 -21 -13z"/>
<path d="M6512 6619 c-151 -130 -239 -199 -248 -195 -9 4 -12 2 -8 -5 3 -6 -5
-22 -17 -36 -24 -26 -9 -23 23 4 14 13 23 11 68 -12 29 -14 54 -24 57 -21 3 2
-18 15 -46 28 -28 13 -50 26 -48 29 1 3 87 80 191 170 235 205 272 238 266
238 -3 0 -110 -90 -238 -200z"/>
<path d="M5700 6750 c0 -5 5 -10 11 -10 5 0 7 5 4 10 -3 6 -8 10 -11 10 -2 0
-4 -4 -4 -10z"/>
<path d="M5746 6715 c10 -8 24 -14 29 -14 6 0 1 6 -9 14 -11 8 -24 15 -30 15
-5 0 -1 -7 10 -15z"/>
<path d="M5790 6692 c0 -4 10 -13 23 -21 12 -8 57 -36 100 -63 42 -26 77 -45
77 -41 0 10 -200 134 -200 125z"/>
<path d="M11119 6623 l-34 -38 38 34 c20 19 37 36 37 38 0 8 -8 0 -41 -34z"/>
<path d="M11039 6553 l-24 -28 28 24 c15 14 27 26 27 28 0 8 -8 1 -31 -24z"/>
<path d="M10706 6230 l-242 -240 -242 0 c-208 0 -242 -2 -242 -15 0 -13 32
-15 225 -15 143 0 225 -4 225 -10 0 -5 -3 -10 -7 -10 -5 0 -17 -13 -27 -28
-16 -22 -13 -21 18 8 l37 35 572 11 572 10 -405 4 c-223 1 -472 5 -555 9
l-150 6 239 238 c132 130 236 237 231 237 -4 0 -116 -108 -249 -240z"/>
<path d="M3179 6423 c-13 -16 -12 -17 4 -4 9 7 17 15 17 17 0 8 -8 3 -21 -13z"/>
<path d="M3114 6368 l-19 -23 23 19 c21 18 27 26 19 26 -2 0 -12 -10 -23 -22z"/>
<path d="M6179 6330 c-13 -10 -19 -19 -13 -20 6 0 19 9 29 20 23 26 14 26 -16
0z"/>
<path d="M3040 6299 c-28 -25 -34 -33 -15 -21 28 19 73 62 64 62 -2 0 -24 -18
-49 -41z"/>
<path d="M6521 6286 c2 -2 15 -9 29 -15 24 -11 24 -11 6 3 -16 13 -49 24 -35
12z"/>
<path d="M6629 6235 c29 -14 59 -25 65 -25 14 0 -62 35 -95 44 -13 3 0 -5 30
-19z"/>
<path d="M7079 6223 c-13 -16 -12 -17 4 -4 9 7 17 15 17 17 0 8 -8 3 -21 -13z"/>
<path d="M2160 6110 l0 -120 -46 0 c-59 0 -55 -24 4 -28 l42 -3 0 -60 c0 -76
18 -77 22 -1 3 50 6 57 26 60 12 2 22 10 22 17 0 7 -10 15 -22 17 -22 3 -23 7
-26 121 -4 156 -22 154 -22 -3z"/>
<path d="M2915 6190 c-10 -11 -14 -20 -8 -20 5 0 18 9 28 20 10 11 14 20 8 20
-5 0 -18 -9 -28 -20z"/>
<path d="M7005 6170 c-3 -5 -2 -10 4 -10 5 0 13 5 16 10 3 6 2 10 -4 10 -5 0
-13 -4 -16 -10z"/>
<path d="M2785 6070 c-16 -17 -24 -30 -19 -30 13 0 59 48 52 55 -2 3 -17 -9
-33 -25z"/>
<path d="M7820 6056 c0 -30 5 -46 15 -50 12 -4 15 4 15 44 0 38 -4 50 -15 50
-11 0 -15 -12 -15 -44z"/>
<path d="M7020 6078 c3 -3 21 -10 40 -17 19 -6 30 -7 25 -2 -6 5 -23 13 -40
17 -16 4 -28 5 -25 2z"/>
<path d="M6826 6025 c-30 -27 -48 -35 -78 -35 -27 0 -38 -4 -38 -15 0 -8 8
-15 17 -15 13 0 14 -3 5 -12 -22 -22 -12 -32 11 -10 19 18 35 22 95 22 40 0
72 4 72 9 0 13 -26 21 -68 21 l-37 0 40 35 c22 19 36 34 30 34 -5 0 -28 -15
-49 -34z"/>
<path d="M5845 6040 c-3 -6 1 -7 9 -4 18 7 21 14 7 14 -6 0 -13 -4 -16 -10z"/>
<path d="M7248 6003 c14 -5 16 -23 2 -23 -5 0 -10 -4 -10 -10 0 -5 21 -7 49
-3 27 3 63 1 80 -5 24 -9 31 -8 31 2 0 8 -24 17 -62 24 -35 6 -72 13 -83 15
-11 2 -14 2 -7 0z"/>
<path d="M2500 5975 c0 -9 9 -15 25 -15 16 0 25 6 25 15 0 9 -9 15 -25 15 -16
0 -25 -6 -25 -15z"/>
<path d="M3005 5973 c-3 -9 9 -13 40 -13 33 0 45 4 45 15 0 18 -77 16 -85 -2z"/>
<path d="M3230 5975 c0 -14 6 -16 30 -11 24 4 30 2 30 -11 0 -15 1 -15 18 0
10 10 29 17 42 17 43 0 16 7 -52 15 -60 6 -68 5 -68 -10z"/>
<path d="M4850 5975 c35 -20 150 -20 150 0 0 12 -16 15 -87 15 -81 -1 -86 -2
-63 -15z"/>
<path d="M5140 5975 c0 -12 14 -15 70 -15 56 0 70 3 70 15 0 12 -14 15 -70 15
-56 0 -70 -3 -70 -15z"/>
<path d="M5420 5975 c0 -21 193 -21 230 0 23 13 13 14 -102 15 -107 0 -128 -2
-128 -15z"/>
<path d="M6240 5975 c0 -12 14 -15 70 -15 56 0 70 3 70 15 0 12 -14 15 -70 15
-56 0 -70 -3 -70 -15z"/>
<path d="M6520 5975 c0 -10 10 -15 30 -15 20 0 30 5 30 15 0 10 -10 15 -30 15
-20 0 -30 -5 -30 -15z"/>
<path d="M8503 5983 c-46 -2 -83 -8 -83 -13 0 -6 70 -10 175 -10 149 0 175 2
175 15 0 16 -42 17 -267 8z"/>
<path d="M8907 5984 c-17 -17 12 -24 99 -24 77 0 94 3 94 15 0 12 -17 15 -93
15 -52 0 -97 -3 -100 -6z"/>
<path d="M9240 5975 c0 -9 9 -15 25 -15 16 0 25 6 25 15 0 9 -9 15 -25 15 -16
0 -25 -6 -25 -15z"/>
<path d="M9430 5975 c0 -12 14 -15 70 -15 56 0 70 3 70 15 0 12 -14 15 -70 15
-56 0 -70 -3 -70 -15z"/>
<path d="M9700 5975 c0 -12 15 -15 75 -15 60 0 75 3 75 15 0 12 -15 15 -75 15
-60 0 -75 -3 -75 -15z"/>
<path d="M3528 5973 c12 -2 30 -2 40 0 9 3 -1 5 -23 4 -22 0 -30 -2 -17 -4z"/>
<path d="M3738 5973 c12 -2 30 -2 40 0 9 3 -1 5 -23 4 -22 0 -30 -2 -17 -4z"/>
<path d="M4445 5970 c3 -5 26 -10 51 -10 28 0 43 4 39 10 -3 6 -26 10 -51 10
-28 0 -43 -4 -39 -10z"/>
<path d="M7053 5973 c9 -2 25 -2 35 0 9 3 1 5 -18 5 -19 0 -27 -2 -17 -5z"/>
<path d="M7558 5973 c12 -2 32 -2 45 0 12 2 2 4 -23 4 -25 0 -35 -2 -22 -4z"/>
<path d="M3259 5913 c-13 -16 -12 -17 4 -4 16 13 21 21 13 21 -2 0 -10 -8 -17
-17z"/>
<path d="M8910 5897 c0 -23 48 -75 73 -79 36 -6 77 12 92 42 14 26 13 28 -8
34 -12 3 -52 9 -89 12 -58 6 -68 5 -68 -9z"/>
<path d="M7820 5855 c0 -32 4 -45 14 -45 17 0 23 23 18 63 -7 47 -32 33 -32
-18z"/>
<path d="M2534 5839 c-19 -22 -19 -22 4 -10 12 6 22 16 22 21 0 15 -5 12 -26
-11z"/>
<path d="M8738 5825 c-21 -14 -42 -33 -47 -43 -5 -10 -30 -29 -55 -42 -55 -28
-51 -36 35 -79 118 -59 244 -65 342 -17 50 24 132 85 125 92 -2 2 -22 -3 -43
-11 -44 -16 -143 -19 -163 -6 -9 6 1 12 32 20 84 21 227 94 212 108 -2 2 -40
-11 -83 -30 -96 -42 -191 -70 -224 -65 -16 2 -34 19 -54 50 -16 26 -32 47 -35
47 -3 1 -22 -10 -42 -24z"/>
<path d="M10280 5795 c-24 -25 -42 -47 -39 -50 3 -2 25 15 49 40 24 25 42 47
39 50 -3 2 -25 -15 -49 -40z"/>
<path d="M6555 5795 c-22 -18 -38 -35 -35 -38 3 -3 22 10 43 30 50 45 43 52
-8 8z"/>
<path d="M5554 5788 l-19 -23 23 19 c21 18 27 26 19 26 -2 0 -12 -10 -23 -22z"/>
<path d="M2439 5749 c-24 -22 -35 -36 -24 -30 20 9 83 71 73 71 -3 0 -25 -18
-49 -41z"/>
<path d="M5499 5739 l-24 -20 28 17 c15 9 27 18 27 20 0 8 -8 4 -31 -17z"/>
<path d="M8090 4276 l0 -1468 22 -39 c42 -75 -108 -69 1798 -69 1924 0 1750
-8 1790 75 23 47 27 105 8 106 -7 0 -44 1 -82 2 l-69 2 -43 95 c-24 52 -41
101 -39 108 3 6 0 12 -5 12 -10 0 -34 69 -26 77 3 3 -1 11 -8 19 -7 7 -21 43
-30 81 -33 131 -37 143 -50 143 -32 0 -71 -67 -91 -153 -5 -24 -8 -27 -21 -16
-11 9 -21 9 -38 1 -14 -6 -63 -14 -109 -18 l-86 -7 -10 42 c-6 22 -16 59 -21
81 -21 78 -44 49 -101 -120 -22 -67 -32 -85 -46 -83 -17 1 -17 1 0 -11 22 -17
13 -76 -12 -77 -10 0 -11 -2 -3 -6 8 -3 12 -31 12 -89 l0 -84 -348 0 -347 0
-52 83 c-46 73 -107 197 -101 202 2 1 44 -4 93 -12 123 -19 280 -12 364 17 87
29 182 92 264 175 116 117 257 347 257 419 0 100 -202 223 -264 160 -9 -8 -45
-59 -80 -112 -79 -121 -188 -239 -241 -263 -22 -10 -55 -19 -73 -19 -28 0
-302 57 -364 76 -15 5 -18 18 -18 88 l0 83 38 11 c49 15 121 76 138 119 9 19
14 69 14 126 0 66 4 99 15 113 25 33 19 47 -19 40 -38 -7 -50 3 -59 51 -6 28
-2 34 27 53 42 26 86 82 86 110 0 27 -93 116 -177 172 l-63 40 0 192 c0 105
-3 274 -7 376 l-6 185 42 48 c22 27 41 51 41 55 -1 4 -15 -10 -33 -31 -18 -21
-36 -35 -40 -31 -4 4 -7 76 -7 161 0 95 -4 153 -10 153 -12 0 -14 -27 -10
-213 2 -143 2 -149 -21 -175 -13 -15 -17 -21 -9 -14 8 6 18 12 22 12 4 0 8
-160 8 -355 0 -338 -1 -355 -18 -355 -11 0 -27 -9 -37 -20 -12 -13 -31 -20
-54 -20 -104 -1 -229 -53 -330 -138 -81 -69 -210 -222 -223 -263 -9 -32 -7
-44 15 -92 32 -70 165 -208 220 -228 35 -12 37 -15 37 -56 0 -36 -3 -43 -19
-43 -11 0 -22 -4 -25 -9 -3 -4 27 -13 66 -20 62 -10 225 -68 216 -76 -2 -2
-30 3 -63 11 -126 29 -264 12 -374 -46 -152 -81 -329 -306 -505 -640 l-60
-115 -27 135 c-47 238 -81 384 -95 408 -13 19 -23 22 -80 22 -81 0 -185 -26
-214 -52 -19 -18 -21 -28 -16 -67 3 -25 13 -122 21 -216 9 -93 22 -214 30
-267 8 -54 15 -101 15 -104 0 -3 -43 -4 -95 -2 -92 3 -96 4 -127 36 l-33 32 0
1465 c0 1158 -3 1467 -12 1476 -11 10 -13 -281 -13 -1455z m1885 62 c5 -21 3
-27 -14 -33 -12 -3 -21 -13 -21 -22 0 -13 3 -13 15 -3 25 21 43 4 51 -47 5
-34 15 -56 35 -74 28 -26 29 -31 29 -121 0 -114 -15 -150 -84 -195 -26 -18
-52 -33 -57 -33 -11 0 -12 613 -1 624 7 8 35 -49 47 -96z m-85 -242 l0 -304
-29 -11 c-31 -13 -51 -47 -51 -86 0 -14 -2 -25 -4 -25 -2 0 -38 16 -80 36 -44
21 -106 41 -146 47 -66 11 -70 13 -69 37 1 43 12 58 74 98 73 48 118 94 113
117 -1 9 -21 23 -43 31 -94 32 -118 134 -31 134 20 0 41 -11 64 -32 l33 -33
24 27 c13 15 35 66 50 113 16 55 37 98 56 120 17 19 33 35 35 35 2 0 4 -137 4
-304z m0 -406 c0 -76 -9 -85 -50 -52 -20 16 -21 21 -11 60 10 37 31 61 54 62
4 0 7 -31 7 -70z m-97 -487 c-13 -2 -33 -2 -45 0 -13 2 -3 4 22 4 25 0 35 -2
23 -4z m-69 -460 c7 -20 4 -23 -23 -23 -36 0 -36 1 -15 42 17 33 23 30 38 -19z"/>
<path d="M9954 4215 c-6 -15 2 -35 16 -35 4 0 7 11 6 25 -1 28 -13 33 -22 10z"/>
<path d="M9948 4016 c-3 -32 -3 -69 0 -83 5 -29 30 -42 43 -22 16 25 10 57
-11 64 -13 4 -20 15 -20 31 0 22 3 24 23 19 19 -6 20 -5 7 6 -8 8 -19 20 -26
28 -9 11 -12 2 -16 -43z"/>
<path d="M9620 4113 c0 -5 16 -16 35 -25 27 -14 35 -15 35 -4 0 7 -11 18 -25
24 -30 14 -45 15 -45 5z"/>
<path d="M6305 5579 c-88 -77 -173 -154 -190 -171 -16 -17 58 45 165 137 107
92 197 169 199 171 2 2 0 4 -5 4 -5 0 -81 -64 -169 -141z"/>
<path d="M5425 5674 l-30 -26 33 22 c17 12 32 23 32 26 0 7 -4 5 -35 -22z"/>
<path d="M10159 5662 c-47 -52 -53 -67 -9 -25 24 23 42 45 39 48 -3 2 -17 -8
-30 -23z"/>
<path d="M2300 5623 c-47 -49 -30 -41 30 14 19 18 30 33 25 33 -6 0 -31 -21
-55 -47z"/>
<path d="M5355 5614 l-30 -26 33 22 c17 12 32 23 32 26 0 7 -4 5 -35 -22z"/>
<path d="M5265 5534 l-50 -46 53 43 c47 38 58 49 49 49 -1 0 -25 -21 -52 -46z"/>
<path d="M10064 5558 c-11 -13 -26 -32 -34 -43 -14 -19 -14 -19 3 -6 18 14 62
71 54 71 -2 0 -12 -10 -23 -22z"/>
<path d="M2874 5518 c-11 -13 -28 -34 -39 -48 -16 -21 -14 -20 14 5 29 27 58
65 48 65 -2 0 -12 -10 -23 -22z"/>
<path d="M9279 5483 c-30 -32 -63 -69 -74 -83 l-19 -25 20 20 c41 40 137 145
133 145 -3 0 -29 -26 -60 -57z"/>
<path d="M5169 5453 l-34 -38 38 34 c20 19 37 36 37 38 0 8 -8 0 -41 -34z"/>
<path d="M1089 5453 l-24 -28 28 24 c25 23 32 31 24 31 -2 0 -14 -12 -28 -27z"/>
<path d="M10899 5423 c-13 -16 -12 -17 4 -4 9 7 17 15 17 17 0 8 -8 3 -21 -13z"/>
<path d="M1034 5408 l-19 -23 23 19 c21 18 27 26 19 26 -2 0 -12 -10 -23 -22z"/>
<path d="M5089 5383 c-13 -16 -12 -17 4 -4 9 7 17 15 17 17 0 8 -8 3 -21 -13z"/>
<path d="M1970 5319 l-35 -30 38 26 c33 24 43 35 34 35 -1 0 -18 -14 -37 -31z"/>
<path d="M9099 5293 c-63 -67 -72 -87 -15 -33 42 40 74 80 63 80 -2 0 -24 -21
-48 -47z"/>
<path d="M10701 5233 c-58 -58 -97 -100 -86 -92 34 24 211 199 201 199 -5 0
-57 -48 -115 -107z"/>
<path d="M9815 5274 c-9 -15 -12 -23 -6 -20 11 7 35 46 28 46 -3 0 -12 -12
-22 -26z"/>
<path d="M1850 5209 l-45 -41 48 37 c41 33 53 45 45 45 -2 0 -23 -18 -48 -41z"/>
<path d="M9750 5198 c-15 -21 -17 -28 -6 -19 16 13 41 51 33 51 -2 0 -14 -15
-27 -32z"/>
<path d="M8974 5158 c-65 -68 -89 -103 -40 -58 36 34 102 110 94 110 -2 0 -26
-24 -54 -52z"/>
<path d="M1774 5138 l-19 -23 23 19 c21 18 27 26 19 26 -2 0 -12 -10 -23 -22z"/>
<path d="M1685 5058 l-40 -43 43 40 c39 36 47 45 39 45 -2 0 -21 -19 -42 -42z"/>
<path d="M9619 5043 l-24 -28 28 24 c15 14 27 26 27 28 0 8 -8 1 -31 -24z"/>
<path d="M8842 5017 c-51 -52 -56 -75 -6 -26 32 30 60 69 51 69 -1 0 -22 -19
-45 -43z"/>
<path d="M10489 5023 l-34 -38 38 34 c34 33 42 41 34 41 -2 0 -19 -17 -38 -37z"/>
<path d="M9569 4983 l-24 -28 28 24 c15 14 27 26 27 28 0 8 -8 1 -31 -24z"/>
<path d="M6444 4956 c-33 -24 -90 -74 -129 -111 l-70 -67 77 66 c43 35 102 84
133 107 50 38 62 49 51 49 -2 0 -30 -20 -62 -44z"/>
<path d="M10425 4970 c-3 -6 1 -7 9 -4 18 7 21 14 7 14 -6 0 -13 -4 -16 -10z"/>
<path d="M9524 4928 l-19 -23 23 19 c12 11 22 21 22 23 0 8 -8 2 -26 -19z"/>
<path d="M8709 4872 c-53 -59 -61 -75 -14 -30 27 26 47 50 44 53 -3 2 -17 -8
-30 -23z"/>
<path d="M9479 4873 c-13 -16 -12 -17 4 -4 9 7 17 15 17 17 0 8 -8 3 -21 -13z"/>
<path d="M8579 4733 c-45 -50 -53 -69 -10 -25 38 40 46 52 38 52 -2 0 -14 -12
-28 -27z"/>
<path d="M8414 4553 c-26 -32 -38 -49 -25 -38 25 22 85 95 78 95 -2 0 -26 -26
-53 -57z"/>
<path d="M8319 4453 c-13 -16 -12 -17 4 -4 9 7 17 15 17 17 0 8 -8 3 -21 -13z"/>
<path d="M8241 4367 l-55 -62 48 45 c39 37 75 82 64 79 -2 0 -28 -28 -57 -62z"/>
<path d="M11008 4365 c-37 -21 -108 -122 -108 -154 1 -26 1 -26 28 9 15 19 51
60 79 91 29 31 50 59 46 62 -9 9 -14 8 -45 -8z"/>
<path d="M11013 4240 c-18 -11 -33 -25 -33 -31 0 -7 11 -8 33 -4 45 10 82 28
80 40 -4 18 -48 16 -80 -5z"/>
<path d="M10825 4233 c-21 -20 -34 -54 -46 -118 -14 -75 -5 -101 44 -123 43
-19 100 -68 129 -110 l16 -23 45 30 c49 34 77 70 77 101 0 28 -6 25 -42 -15
-53 -61 -62 -62 -120 -10 -35 31 -62 47 -90 51 l-39 7 7 41 c3 22 17 70 30
105 13 35 24 67 24 72 0 14 -17 10 -35 -8z"/>
<path d="M11063 4175 c-13 -9 -23 -23 -23 -31 0 -11 6 -13 23 -8 54 17 68 25
65 37 -7 18 -40 20 -65 2z"/>
<path d="M3096 4079 c-65 -10 -105 -28 -116 -50 -6 -10 -13 -44 -16 -76 -5
-50 -3 -62 16 -85 19 -24 28 -28 76 -28 52 0 55 -2 82 -40 15 -21 35 -39 46
-40 16 0 18 5 13 34 -5 34 -5 34 39 41 24 3 56 17 71 29 23 20 27 33 31 89 4
60 2 68 -21 91 -15 14 -31 26 -36 26 -6 0 1 -11 14 -25 29 -28 33 -77 11 -129
-22 -53 -92 -67 -241 -49 l-70 8 -3 54 c-6 100 -1 105 135 141 70 19 54 24
-31 9z"/>
<path d="M11103 4083 c-41 -8 -27 -33 18 -33 33 0 40 3 37 17 -3 19 -19 23
-55 16z"/>
<path d="M3050 3966 c0 -8 5 -18 10 -21 6 -3 10 1 10 9 0 8 -4 18 -10 21 -5 3
-10 -1 -10 -9z"/>
<path d="M3130 3966 c0 -15 18 -31 26 -23 7 7 -7 37 -17 37 -5 0 -9 -6 -9 -14z"/>
<path d="M3220 3960 c0 -11 5 -20 10 -20 6 0 10 9 10 20 0 11 -4 20 -10 20 -5
0 -10 -9 -10 -20z"/>
<path d="M3487 3862 c-24 -26 -34 -60 -84 -262 -24 -102 -49 -189 -54 -194 -5
-6 -9 -16 -9 -23 0 -9 16 -5 52 13 89 45 130 74 124 89 -2 7 10 55 29 107 39
109 71 249 62 272 -9 23 -98 22 -120 -2z"/>
<path d="M7108 3710 c-67 -12 -169 -65 -226 -119 l-49 -46 29 -24 c16 -13 44
-54 63 -91 19 -38 38 -71 43 -74 30 -19 152 103 138 139 -5 13 -16 5 -57 -39
-28 -31 -54 -56 -58 -56 -4 0 -15 18 -25 40 -10 22 -33 57 -52 77 l-35 37 23
18 c48 38 166 89 236 102 40 8 76 17 79 20 6 5 -42 27 -55 25 -4 -1 -28 -5
-54 -9z"/>
<path d="M7053 3590 c-45 -18 -24 -30 52 -30 57 0 75 3 75 14 0 8 -7 17 -16
20 -23 9 -85 6 -111 -4z"/>
<path d="M3288 3475 c-41 -28 -104 -109 -113 -147 -5 -20 -1 -35 18 -60 29
-39 57 -116 57 -158 0 -20 5 -30 15 -30 8 0 15 4 15 9 0 5 37 10 83 13 83 4
157 29 165 56 5 17 -23 15 -93 -7 -33 -10 -79 -21 -101 -25 -42 -6 -42 -6 -49
31 -9 50 -31 91 -68 130 l-30 32 82 80 c44 44 81 85 81 91 0 17 -23 11 -62
-15z"/>
<path d="M3473 3360 c-42 -17 -23 -45 22 -34 16 4 25 13 25 25 0 21 -12 23
-47 9z"/>
<path d="M3483 3270 c-26 -10 -30 -28 -10 -36 20 -7 69 14 64 29 -5 16 -26 18
-54 7z"/>
</g>
</svg>
